Coordinates
version=1
nRows=6
nColumns=36
inDegrees=yes

Units are S.I. units (second, meters, Newtons, ...)
If the header above contains a line with 'inDegrees', this indicates whether rotational values are in degrees (yes) or radians (no).

endheader
time	pelvis_tilt	pelvis_list	pelvis_rotation	pelvis_tx	pelvis_ty	pelvis_tz	hip_flexion_r	hip_adduction_r	hip_rotation_r	knee_angle_r	knee_angle_r_beta	ankle_angle_r	subtalar_angle_r	mtp_angle_r	hip_flexion_l	hip_adduction_l	hip_rotation_l	knee_angle_l	knee_angle_l_beta	ankle_angle_l	subtalar_angle_l	mtp_angle_l	lumbar_extension	lumbar_bending	lumbar_rotation	arm_flex_r	arm_add_r	arm_rot_r	elbow_flex_r	pro_sup_r	arm_flex_l	arm_add_l	arm_rot_l	elbow_flex_l	pro_sup_l
      3.00000000	    -16.26214423	     -1.42941214	     -6.28166841	      1.79494477	      1.35997883	      0.19805984	     19.57719642	     -0.27387048	    -15.58482592	      0.11764350	      0.00205327	     -8.96532410	     -9.19769836	     -7.49999987	     20.22347719	     -9.92745011	     -9.55427417	      0.36468253	      0.00636491	     -8.86973634	     -2.60775009	     -7.49999987	     -1.12582776	     -0.46890755	      3.46228343	      6.85505397	    -27.64472011	   -132.22153674	      5.39975584	     71.97528583	     -4.13211338	    -26.74489989	      5.30412181	     13.71075568	     93.50983867
      3.01666670	    -16.56745692	     -1.38000640	     -6.09570480	      1.79426506	      1.33709799	      0.19856091	     20.03049509	     -0.40509288	    -15.30063268	      0.11951974	      0.00208601	     -8.78509568	     -9.33438642	     -7.49999987	     20.76339311	     -9.85856045	     -9.27157817	      0.37362828	      0.00652104	     -8.35394384	     -2.58591416	     -7.49999987	     -0.96182864	     -0.37359224	      2.71665935	      7.34966904	    -27.89911514	   -133.31090217	      5.82312537	     72.85262690	     -5.72689973	    -29.15830247	     18.70030185	     16.70346730	     97.15803995
      3.03333330	    -16.68848080	     -1.31796105	     -5.91725862	      1.80156826	      1.32319647	      0.19957430	     20.20181547	     -0.63498337	    -15.22539246	      0.11926250	      0.00208152	     -8.41956453	     -8.88802599	     -7.49999987	     20.97981088	     -9.79514631	     -8.96373051	      0.36028355	      0.00628813	     -7.85383050	     -2.47013912	     -7.49999987	     -0.84462796	     -0.31411232	      2.08164462	      6.77407183	    -27.48925088	   -135.81028282	      6.53618635	     72.30372027	     -7.78138713	    -31.47645648	     29.22492071	     19.38904740	     97.63546077
      3.05000000	    -16.73393929	     -1.27375723	     -5.77277073	      1.80017523	      1.30056635	      0.19996533	     20.35722209	     -0.83141171	    -14.91558311	      0.11994189	      0.00209338	     -8.34256705	     -8.91506642	     -7.49999987	     21.05923719	     -9.78698305	     -8.94494916	      0.35241421	      0.00615079	     -7.11834717	     -2.37110139	     -7.49999987	     -0.64660132	     -0.39447268	      1.56311407	      6.42367223	    -26.36199215	   -138.30246430	      8.21269338	     72.20712610	     -9.78674121	    -31.70149620	     31.92273613	     20.07352410	     95.24716494
      3.06666670	    -16.51399907	     -1.24171715	     -5.66583793	      1.79973887	      1.28509463	      0.20052211	     20.16342700	     -1.03568471	    -14.70714715	      0.12145244	      0.00211974	     -8.30309467	     -8.72838062	     -7.49999987	     20.79731462	     -9.78685459	     -8.75668438	      0.36476914	      0.00636642	     -6.73443349	     -2.42260647	     -7.49999987	     -0.58038490	     -0.44166481	      1.39350360	      5.04742644	    -25.24834947	   -140.62946808	      8.38151072	     73.17921839	    -10.60717338	    -31.47215706	     36.52485866	     19.95576990	     95.61350189
      3.08333330	    -16.25122707	     -1.20969349	     -5.66370449	      1.80126306	      1.25895690	      0.20396293	     19.94844013	     -1.17575641	    -14.44266508	      0.12282146	      0.00214364	     -8.17097826	     -8.53822430	     -7.49999987	     20.43003448	     -9.84783052	     -8.66386235	      0.36817621	      0.00642589	     -6.40193522	     -2.49872748	     -7.49999987	     -0.38282346	     -0.53282687	      1.36152566	      3.14781104	    -24.01620480	   -142.83761969	      8.90829409	     72.85815137	    -11.35536668	    -30.68838691	     39.01474685	     20.17873074	     97.28228154
